<?xml version="1.0" encoding="UTF-8"?>
<!-- Hotel Red wordmark — clean logo group extracted from the supplied vector (watermark band cropped out via viewBox). -->
<svg xmlns="http://www.w3.org/2000/svg" viewBox="240 360 520 285" preserveAspectRatio="xMidYMid meet" role="img" aria-label="Hotel Red">
  <path fill="#EC1C24" fill-rule="evenodd" clip-rule="evenodd" d="M618.109,368.109C690.938,368.109,750,427.171,750,500c0,72.829-59.062,131.891-131.891,131.891S486.219,572.829,486.219,500C486.219,427.171,545.281,368.109,618.109,368.109L618.109,368.109z M623.637,551.453c-7.328,0-12.671-2.321-16.031-6.965c-3.361-4.673-5.042-12.055-5.042-22.175v-27.296c0-11.162,1.708-19.437,5.152-24.825c3.443-5.388,8.76-8.066,15.921-8.066c8.186,0,11.936,5.347,11.936,7.59v-39.243h3.544h7.355h7.41l0,0v119.136l0,0h-7.354h-10.955l0,0v-7.471l0,0C631.277,548.358,629.642,551.453,623.637,551.453L623.637,551.453z M628.319,481.126c-6.846,0-9.136,8.321-9.136,13.828v24.369c0,5.882,1.024,13.397,8.393,13.397c9.69,0,8.693-9.009,8.693-16.778v-18.684C636.269,489.532,637.928,481.126,628.319,481.126L628.319,481.126z M570.896,551.453c-8.694,0-14.818-2.5-18.372-7.471c-3.553-4.971-5.318-13.483-5.318-25.599V493.44c0-10.626,1.941-15.946,5.797-21.065c3.855-5.119,9.828-7.68,17.918-7.68c8.215,0,14.239,2.5,18.044,7.501c3.805,5.001,5.72,10.38,5.72,21.243v18.931l0,0h-33.971l0,0v6.281c0,6.368,0.701,14.786,8.993,14.786c5.491,0,8.836-4.362,8.836-9.547h15.916v2.53c0.353,8.482-1.412,14.793-5.268,18.871C585.311,549.4,579.238,551.453,570.896,551.453L570.896,551.453z M578.68,500.524L578.68,500.524v-6.816c0-5.558-2.534-11.91-9.15-11.91c-5.805,0-8.212,7.067-8.212,11.91v6.816l0,0H578.68L578.68,500.524z M503.204,549.608v-85.637l0,0h8.517h8.582l0,0v10.299l0,0l0,0l2.328-3.067c5.168-5.923,11.516-8.959,18.98-9.079v15.985c-7.911,0-13.429,1.786-16.587,5.358c-3.158,3.572-4.721,9.882-4.721,18.961l0,0v47.179l0,0h-8.518H503.204L503.204,549.608z"/>
  <path fill="#231F20" d="M250,549.04V430.591l0,0h8.893h8.964l0,0v43.15l0,0l0,0c3.953-5.931,9.435-8.911,16.47-8.911c4.588,0,8.306,2.006,11.129,6.045c2.823,4.041,4.234,9.312,4.234,15.873v62.29l0,0h-8.893h-8.964l0,0v-59.941c0-3.352-0.494-5.788-1.483-7.307c-0.988-1.518-2.588-2.264-4.775-2.264c-2.848,0-4.895,1.519-6.141,4.585c-1.224,3.037-1.765,7.879-1.577,14.47l0,0v50.457l0,0h-8.894H250L250,549.04z"/>
  <path fill="#231F20" d="M332.943,550.816c-8.935,0-15.379-2.464-19.331-7.392c-3.952-4.929-5.941-12.922-5.941-24.011v-23.18c0-11.088,1.989-19.083,5.941-24.011c3.952-4.929,10.396-7.392,19.331-7.392c8.935,0,15.378,2.464,19.355,7.392c3.976,4.928,5.964,12.922,5.964,24.011v23.18c0,11.088-1.989,19.082-5.964,24.011C348.321,548.352,341.878,550.816,332.943,550.816L332.943,550.816z M332.943,533.078c2.923,0,4.887-1.318,5.845-3.954c0.958-2.636,1.436-3.293,1.436-11.487v-23.179c0-6.103-0.551-6.784-1.652-9.277c-1.102-2.492-2.971-3.725-5.629-3.725c-2.683,0-4.551,1.233-5.629,3.725c-1.077,2.492-1.605,3.174-1.605,9.277v23.179c0,8.194,0.479,8.852,1.413,11.487C328.057,531.76,329.997,533.078,332.943,533.078L332.943,533.078z"/>
  <path fill="#231F20" d="M402.096,547.521c-2.795,1.518-8.435,2.976-12.401,2.976c-14.523,0-19.256-13.135-19.256-24.879v-46.556l0,0h-8.474v-15.066h8.474l0,0v-25.423l15.921-0.059v25.483l0,0h9.9v15.066h-9.9l0,0l0.113,48.021c-0.053,5.822,3.298,9.363,11.71,5.793L402.096,547.521L402.096,547.521z"/>
  <path fill="#231F20" d="M425.721,550.816c-8.548,0-14.734-2.521-18.558-7.564c-3.799-5.043-5.699-13.266-5.699-24.67v-16.303c0-13.724,1.948-23.38,5.822-28.996c3.872-5.645,10.545-8.453,20.019-8.453c9.985,0,16.779,2.436,20.384,7.307c3.629,4.871,5.432,14.04,5.432,27.535v12.006l0,0h-33.317l0,0v2.521c0,9.569,0.484,11.869,1.461,14.961c0.97,3.067,2.996,4.613,6.041,4.613c2.898,0,4.91-1.122,6.04-3.324c1.135-2.21,1.436-1.834,1.436-6.996v-2.435h18.339v2.435c0.146,9.111-2.071,15.96-6.625,20.515C441.917,548.524,434.999,550.816,425.721,550.816L425.721,550.816z M434.78,499.099L434.78,499.099v-4.613c0-6.447-0.512-6.937-1.559-9.257c-1.046-2.32-3.019-3.496-5.917-3.496c-2.923,0-4.891,1.405-5.943,4.212c-1.042,2.78-1.559,4.186-1.559,11.979v1.175l0,0H434.78L434.78,499.099z"/>
  <path fill="#231F20" d="M491.15,548.506c-2.984,1.107-7.085,1.991-10.17,1.991c-14.523,0-19.256-13.135-19.256-24.879c0-52.409,0-53.796,0-95.364l15.921-0.059c0,43.573-0.019,40.588,0.113,96.888c-0.046,5.078,2.5,8.423,8.733,6.824C487.773,538.891,489.335,543.76,491.15,548.506L491.15,548.506z"/>
</svg>
